<svg viewBox="0 0 100 100" xmlns="http://www.w3.org/2000/svg" role="img" aria-label="Aura Experience">
<g><path d="M50.00 3.00 A47 47 0 0 1 56.62 3.47 L53.10 28.22 A22 22 0 0 0 50.00 28.00 Z" fill="#f3d06d"/><path d="M56.13 3.40 A47 47 0 0 1 62.64 4.73 L55.92 28.81 A22 22 0 0 0 52.87 28.19 Z" fill="#f2cd64"/><path d="M62.16 4.60 A47 47 0 0 1 68.44 6.77 L58.63 29.76 A22 22 0 0 0 55.69 28.75 Z" fill="#f2c95c"/><path d="M67.99 6.58 A47 47 0 0 1 73.92 9.55 L61.20 31.06 A22 22 0 0 0 58.42 29.67 Z" fill="#f1c553"/><path d="M73.50 9.30 A47 47 0 0 1 79.00 13.01 L63.57 32.69 A22 22 0 0 0 61.00 30.95 Z" fill="#f0be52"/><path d="M78.61 12.71 A47 47 0 0 1 83.58 17.12 L65.72 34.61 A22 22 0 0 0 63.39 32.55 Z" fill="#f0b654"/><path d="M83.23 16.77 A47 47 0 0 1 87.59 21.78 L67.59 36.79 A22 22 0 0 0 65.56 34.44 Z" fill="#efad57"/><path d="M87.29 21.39 A47 47 0 0 1 90.95 26.93 L69.17 39.20 A22 22 0 0 0 67.45 36.61 Z" fill="#eea55a"/><path d="M90.70 26.50 A47 47 0 0 1 93.61 32.47 L70.41 41.79 A22 22 0 0 0 69.05 39.00 Z" fill="#ed995e"/><path d="M93.42 32.01 A47 47 0 0 1 95.52 38.31 L71.31 44.53 A22 22 0 0 0 70.33 41.58 Z" fill="#eb8d64"/><path d="M95.40 37.84 A47 47 0 0 1 96.66 44.35 L71.84 47.36 A22 22 0 0 0 71.25 44.31 Z" fill="#ea8069"/><path d="M96.60 43.87 A47 47 0 0 1 97.00 50.49 L72.00 50.23 A22 22 0 0 0 71.81 47.13 Z" fill="#e8746f"/><path d="M97.00 50.00 A47 47 0 0 1 96.53 56.62 L71.78 53.10 A22 22 0 0 0 72.00 50.00 Z" fill="#e66b75"/><path d="M96.60 56.13 A47 47 0 0 1 95.27 62.64 L71.19 55.92 A22 22 0 0 0 71.81 52.87 Z" fill="#e3617b"/><path d="M95.40 62.16 A47 47 0 0 1 93.23 68.44 L70.24 58.63 A22 22 0 0 0 71.25 55.69 Z" fill="#e15781"/><path d="M93.42 67.99 A47 47 0 0 1 90.45 73.92 L68.94 61.20 A22 22 0 0 0 70.33 58.42 Z" fill="#de4e87"/><path d="M90.70 73.50 A47 47 0 0 1 86.99 79.00 L67.31 63.57 A22 22 0 0 0 69.05 61.00 Z" fill="#d84a8a"/><path d="M87.29 78.61 A47 47 0 0 1 82.88 83.58 L65.39 65.72 A22 22 0 0 0 67.45 63.39 Z" fill="#d3468e"/><path d="M83.23 83.23 A47 47 0 0 1 78.22 87.59 L63.21 67.59 A22 22 0 0 0 65.56 65.56 Z" fill="#cd4292"/><path d="M78.61 87.29 A47 47 0 0 1 73.07 90.95 L60.80 69.17 A22 22 0 0 0 63.39 67.45 Z" fill="#c13e96"/><path d="M73.50 90.70 A47 47 0 0 1 67.53 93.61 L58.21 70.41 A22 22 0 0 0 61.00 69.05 Z" fill="#a73d99"/><path d="M67.99 93.42 A47 47 0 0 1 61.69 95.52 L55.47 71.31 A22 22 0 0 0 58.42 70.33 Z" fill="#8d3b9c"/><path d="M62.16 95.40 A47 47 0 0 1 55.65 96.66 L52.64 71.84 A22 22 0 0 0 55.69 71.25 Z" fill="#6a3394"/><path d="M56.13 96.60 A47 47 0 0 1 49.51 97.00 L49.77 72.00 A22 22 0 0 0 52.87 71.81 Z" fill="#3b227d"/><path d="M50.00 97.00 A47 47 0 0 1 43.38 96.53 L46.90 71.78 A22 22 0 0 0 50.00 72.00 Z" fill="#21186f"/><path d="M43.87 96.60 A47 47 0 0 1 37.36 95.27 L44.08 71.19 A22 22 0 0 0 47.13 71.81 Z" fill="#1c1569"/><path d="M37.84 95.40 A47 47 0 0 1 31.56 93.23 L41.37 70.24 A22 22 0 0 0 44.31 71.25 Z" fill="#20176c"/><path d="M32.01 93.42 A47 47 0 0 1 26.08 90.45 L38.80 68.94 A22 22 0 0 0 41.58 70.33 Z" fill="#2c1d77"/><path d="M26.50 90.70 A47 47 0 0 1 21.00 86.99 L36.43 67.31 A22 22 0 0 0 39.00 69.05 Z" fill="#372382"/><path d="M21.39 87.29 A47 47 0 0 1 16.42 82.88 L34.28 65.39 A22 22 0 0 0 36.61 67.45 Z" fill="#492a89"/><path d="M16.77 83.23 A47 47 0 0 1 12.41 78.22 L32.41 63.21 A22 22 0 0 0 34.44 65.56 Z" fill="#5d318f"/><path d="M12.71 78.61 A47 47 0 0 1 9.05 73.07 L30.83 60.80 A22 22 0 0 0 32.55 63.39 Z" fill="#723795"/><path d="M9.30 73.50 A47 47 0 0 1 6.39 67.53 L29.59 58.21 A22 22 0 0 0 30.95 61.00 Z" fill="#873e9b"/><path d="M6.58 67.99 A47 47 0 0 1 4.48 61.69 L28.69 55.47 A22 22 0 0 0 29.67 58.42 Z" fill="#994397"/><path d="M4.60 62.16 A47 47 0 0 1 3.34 55.65 L28.16 52.64 A22 22 0 0 0 28.75 55.69 Z" fill="#ab4792"/><path d="M3.40 56.13 A47 47 0 0 1 3.00 49.51 L28.00 49.77 A22 22 0 0 0 28.19 52.87 Z" fill="#bd4b8c"/><path d="M3.00 50.00 A47 47 0 0 1 3.47 43.38 L28.22 46.90 A22 22 0 0 0 28.00 50.00 Z" fill="#cf4f87"/><path d="M3.40 43.87 A47 47 0 0 1 4.73 37.36 L28.81 44.08 A22 22 0 0 0 28.19 47.13 Z" fill="#d65a85"/><path d="M4.60 37.84 A47 47 0 0 1 6.77 31.56 L29.76 41.37 A22 22 0 0 0 28.75 44.31 Z" fill="#dc6682"/><path d="M6.58 32.01 A47 47 0 0 1 9.55 26.08 L31.06 38.80 A22 22 0 0 0 29.67 41.58 Z" fill="#e37180"/><path d="M9.30 26.50 A47 47 0 0 1 13.01 21.00 L32.69 36.43 A22 22 0 0 0 30.95 39.00 Z" fill="#e87d7d"/><path d="M12.71 21.39 A47 47 0 0 1 17.12 16.42 L34.61 34.28 A22 22 0 0 0 32.55 36.61 Z" fill="#ea8b78"/><path d="M16.77 16.77 A47 47 0 0 1 21.78 12.41 L36.79 32.41 A22 22 0 0 0 34.44 34.44 Z" fill="#eb9973"/><path d="M21.39 12.71 A47 47 0 0 1 26.93 9.05 L39.20 30.83 A22 22 0 0 0 36.61 32.55 Z" fill="#eda76d"/><path d="M26.50 9.30 A47 47 0 0 1 32.47 6.39 L41.79 29.59 A22 22 0 0 0 39.00 30.95 Z" fill="#eeb36b"/><path d="M32.01 6.58 A47 47 0 0 1 38.31 4.48 L44.53 28.69 A22 22 0 0 0 41.58 29.67 Z" fill="#f0bc6c"/><path d="M37.84 4.60 A47 47 0 0 1 44.35 3.34 L47.36 28.16 A22 22 0 0 0 44.31 28.75 Z" fill="#f1c56e"/><path d="M43.87 3.40 A47 47 0 0 1 50.49 3.00 L50.23 28.00 A22 22 0 0 0 47.13 28.19 Z" fill="#f2ce70"/></g>
</svg>